<?xml version="1.0" ?><svg enable-background="new 0 0 32 32" version="1.1" viewBox="0 0 32 32" xml:space="preserve" xmlns="http://www.w3.org/2000/svg" xmlns:xlink="http://www.w3.org/1999/xlink"><g fill="#6f445c" id="OUTLINE_copy_2"><g><g><path d="M13.365,16.525h-3.15v3.15h3.15c0.227,0,1.575-0.016,1.575-1.575C14.94,16.541,13.365,16.525,13.365,16.525z"/></g><g><path d="M14.091,13.622c0-1.281-0.988-1.297-0.988-1.297h-2.887v2.625h2.887C13.103,14.95,14.091,14.95,14.091,13.622z"/></g><g><path d="M21.24,14.95c-1.61,0-1.575,1.575-1.575,1.575h3.15C22.815,16.525,22.849,14.95,21.24,14.95z"/></g><g><path d="M16,0C7.163,0,0,7.164,0,16s7.163,16,16,16c8.836,0,16-7.164,16-16S24.837,0,16,0z M19.14,11.8h4.2v1.05h-4.2V11.8z      M16.778,18.1c0,3.241-2.887,3.15-2.887,3.15H8.115v-10.5l5.644,0.009c1.647,0,2.725,0.937,2.725,2.836     c0,1.901-1.589,2.022-1.589,2.022C16.99,15.618,16.778,18.1,16.778,18.1z M21.24,19.675c1.575,0,1.575-1.575,1.575-1.575h2.1     c0,3.15-3.675,3.15-3.675,3.15c-4.2,0-3.937-3.937-3.937-3.937s-0.007-3.937,3.937-3.937c3.675,0,3.675,3.15,3.675,4.2     c-1.05,0-5.25,0-5.25,0C19.665,19.675,21.24,19.675,21.24,19.675z"/></g></g></g></svg>