<?xml version="1.0" encoding="utf-8"?>
<!-- Svg Vector Icons : http://www.onlinewebfonts.com/icon -->
<!DOCTYPE svg PUBLIC "-//W3C//DTD SVG 1.1//EN" "http://www.w3.org/Graphics/SVG/1.1/DTD/svg11.dtd">
<svg version="1.1" xmlns="http://www.w3.org/2000/svg" xmlns:xlink="http://www.w3.org/1999/xlink" x="0px" y="0px" viewBox="0 0 1000 1000" enable-background="new 0 0 1000 1000" xml:space="preserve">

<g><g transform="translate(0.000000,512.000000) scale(0.100000,-0.100000)"><path fill="#6f445c" d="M4525.6,5007.3c-1153.8-118.8-2186.8-607.5-2997.5-1418.3C750,2810.9,286.1,1866.1,123.2,725.7c-15.3-103.5-24.9-350.7-23-613.3c0-358.4,7.7-490.6,42.2-709.1c86.2-542.4,224.2-979.4,465.7-1464.3c477.2-964,1238.1-1724.9,2204-2204c649.7-323.9,1286-484.9,2020.1-511.7c795.4-30.7,1558.2,130.3,2280.7,479.1c525.1,253,879.7,502.1,1291.8,902.7c446.6,435.1,718.7,808.8,988.9,1360.8c88.2,180.1,191.7,415.9,230,527.1c435.1,1266.8,354.6,2602.7-228.1,3785.2c-260.6,525.1-513.6,881.6-918,1291.8c-764.7,772.4-1692.3,1240-2792.5,1410.6C5443.6,5016.9,4770.9,5034.2,4525.6,5007.3z M5298,3246c966-101.6,1805.4-613.3,2326.7-1418.3c375.6-578.8,559.6-1295.6,498.3-1945.3c-28.7-308.6-65.2-483-157.2-759c-308.6-927.6-1044.5-1663.6-1972.1-1972.1c-276-92-450.4-128.4-759-157.2c-649.7-61.3-1366.5,122.7-1945.3,498.3c-1420.2,920-1855.2,2798.2-983.2,4245.2C2927.2,2772.6,4113.5,3370.6,5298,3246z"/><path fill="#6f445c" d="M4818.8,2807.1c-159.1-101.6-322-345-456.1-682.3c-65.2-162.9-210.8-707.2-210.8-785.8v-47.9h845.2h845.2l-13.4,92c-24.9,168.7-139.9,590.3-208.9,759C5380.4,2738.1,5091,2979.6,4818.8,2807.1z"/><path fill="#6f445c" d="M4082.9,2711.3c-565.4-199.3-1080.9-609.5-1410.6-1123.1c-51.7-82.4-149.5-268.3-149.5-287.5c0-5.8,274.1-7.7,607.6-5.8l607.5,5.8l17.2,86.2c93.9,502.1,270.2,1019.6,444.6,1299.4c26.8,44.1,47.9,80.5,44.1,80.5C4240,2766.9,4169.1,2742,4082.9,2711.3z"/><path fill="#6f445c" d="M5790.5,2684.5c147.6-235.7,318.1-705.3,402.5-1105.9c28.8-132.2,53.7-251.1,59.4-262.6c5.8-19.2,143.8-24.9,611.4-24.9c331.6,0,603.7,5.8,603.7,11.5c0,40.3-164.8,314.3-279.8,467.6c-343.1,456.1-827.9,799.2-1364.6,969.8l-82.4,24.9L5790.5,2684.5z"/><path  fill="#6f445c" d="M2352.2,863.7C2289,700.8,2264,484.2,2264,122c0-362.2,24.9-576.9,86.2-737.9l19.2-47.9h661.2h663.1l-15.3,178.2c-19.2,226.2-19.2,964,0,1207.4l13.4,185.9h-661.2h-661.2L2352.2,863.7z"/><path fill="#6f445c" d="M4088.6,865.6c-7.7-24.9-21.1-201.2-34.5-392.9c-17.2-270.2-17.2-431.2,0-699.5c13.4-193.6,26.8-369.9,34.5-392.9l9.6-44.1h896.9h897l9.6,44.1c36.4,138,55.6,760.9,34.5,1090.5c-13.4,193.6-26.8,369.9-34.5,394.8l-9.6,42.2h-897h-896.9L4088.6,865.6z"/><path fill="#6f445c" d="M6311.8,721.9c9.6-103.5,15.3-373.7,15.3-599.9c0-226.1-5.7-496.4-15.3-598l-13.4-187.8h661.2h661.2l17.3,44.1c63.3,162.9,88.2,379.5,88.2,741.7c0,362.2-24.9,578.8-88.2,741.7l-17.3,44.1h-661.2h-661.2L6311.8,721.9z"/><path fill="#6f445c" d="M2522.8-1056.7c0-30.7,115-230,218.5-381.4c245.3-362.2,607.6-678.4,998.5-877.8c222.3-111.2,460-203.1,479.1-185.9c5.7,7.7-19.2,63.2-57.5,126.5c-141.8,239.6-285.6,659.3-379.5,1107.8l-44.1,210.8l-607.5,5.7C2796.8-1049,2522.8-1050.9,2522.8-1056.7z"/><path fill="#6f445c" d="M4161.4-1137.2c23-161,138-584.6,201.2-743.6c185.9-471.5,415.9-737.9,632.5-737.9c216.6,0,446.6,266.4,632.5,737.9c63.3,159.1,178.3,582.6,201.2,743.6l13.4,90.1h-847.1H4148L4161.4-1137.2z"/><path fill="#6f445c" d="M6252.4-1070.1c-5.7-13.4-30.7-132.3-59.4-264.5c-84.3-400.6-254.9-870.1-400.5-1105.9l-49.8-78.6l82.4,24.9c203.1,63.2,463.8,184,634.4,293.2c300.9,191.7,597.9,479.1,795.4,768.5c97.7,145.7,212.7,346.9,212.7,375.7c0,5.7-272.1,9.6-603.7,9.6C6396.1-1047.1,6258.2-1052.8,6252.4-1070.1z"/></g></g>
</svg>