<svg xmlns="http://www.w3.org/2000/svg" xmlns:xlink="http://www.w3.org/1999/xlink" viewBox="0 0 21.65 21.65"><defs><style>.cls-1{fill:none;}.cls-2{clip-path:url(#clip-path);}.cls-3{fill:#6f445c;}</style><clipPath id="clip-path" transform="translate(0 0)"><rect class="cls-1" width="21.65" height="21.65"/></clipPath></defs><g id="Layer_2" data-name="Layer 2"><g id="Layer_1-2" data-name="Layer 1"><g class="cls-2"><path class="cls-3" d="M17.57,14l-3.15-3.15,3.15-3.14Zm-.5,1.35H4.77a.52.52,0,0,1-.32-.11l3.67-3.67,1.74,1.73a1.46,1.46,0,0,0,1.06.44A1.44,1.44,0,0,0,12,13.27l1.75-1.74,3.67,3.67a.47.47,0,0,1-.32.12M4.26,7.68l3.16,3.15L4.26,14Zm.2-1.24H17.39l-6.12,6.12a.52.52,0,0,1-.35.14.52.52,0,0,1-.36-.14L4.45,6.45h0M10.82,0A10.83,10.83,0,1,0,21.65,10.82,10.83,10.83,0,0,0,10.82,0" transform="translate(0 0)"/></g></g></g></svg>