<svg width="958" height="719" viewBox="0 0 958 719" fill="none" xmlns="http://www.w3.org/2000/svg">
<rect x="2.5" y="57.5" width="953" height="604" stroke="black" stroke-width="5" stroke-linecap="round" stroke-linejoin="round"/>
<rect x="914.5" y="57.5" width="41" height="604" fill="#C4C4C4" stroke="black" stroke-width="5"/>
<rect x="914.5" y="107.5" width="41" height="59" fill="white" stroke="black" stroke-width="5"/>
<path d="M2.5 704C2.5 710.904 8.09644 716.5 15 716.5H943C949.904 716.5 955.5 710.904 955.5 704V661.5H2.5V704Z" stroke="black" stroke-width="5"/>
<path d="M2.5 15C2.5 8.09644 8.09644 2.5 15 2.5H943C949.904 2.5 955.5 8.09644 955.5 15V57.5H2.5V15Z" stroke="black" stroke-width="5"/>
<rect x="895.98" y="13" width="34.9957" height="34.9957" rx="7" stroke="black" stroke-width="4" stroke-linejoin="round"/>
<path d="M904.729 21.749L922.227 39.2469M922.227 21.749L904.729 39.2469" stroke="black" stroke-width="3" stroke-linecap="round"/>
<rect x="846.98" y="13" width="34.9957" height="34.9957" rx="7" stroke="black" stroke-width="4" stroke-linejoin="round"/>
<path d="M856.729 24.2486L873.102 24.2486M859.729 39.2469H869.227C871.436 39.2469 873.227 37.456 873.227 35.2469V25.749C873.227 23.5399 871.436 21.749 869.227 21.749H859.729C857.52 21.749 855.729 23.5399 855.729 25.749V35.2469C855.729 37.456 857.52 39.2469 859.729 39.2469Z" stroke="black" stroke-width="2" stroke-linecap="round" stroke-linejoin="round"/>
<rect x="798" y="13" width="34.9957" height="34.9957" rx="7" stroke="black" stroke-width="4" stroke-linejoin="round"/>
<line x1="807.374" y1="38.6216" x2="822.747" y2="38.6216" stroke="black" stroke-width="3" stroke-linecap="round" stroke-linejoin="round"/>
<path d="M44.0117 36.5137L46.8555 25.207H49.3848L45.0781 40H43.0273L39.4316 28.7891L35.9316 40H33.8809L29.5879 25.207H32.1035L35.0156 36.2812L38.4609 25.207H40.498L44.0117 36.5137ZM54.7168 40H52.1875V25.207H54.7168V40ZM51.9824 21.2832C51.9824 20.873 52.1055 20.5267 52.3516 20.2441C52.6068 19.9616 52.9805 19.8203 53.4727 19.8203C53.9648 19.8203 54.3385 19.9616 54.5938 20.2441C54.849 20.5267 54.9766 20.873 54.9766 21.2832C54.9766 21.6934 54.849 22.0352 54.5938 22.3086C54.3385 22.582 53.9648 22.7188 53.4727 22.7188C52.9805 22.7188 52.6068 22.582 52.3516 22.3086C52.1055 22.0352 51.9824 21.6934 51.9824 21.2832ZM61.1699 25.207L61.252 27.0664C62.3822 25.6445 63.8587 24.9336 65.6816 24.9336C68.8079 24.9336 70.3848 26.6973 70.4121 30.2246V40H67.8828V30.2109C67.8737 29.1445 67.6276 28.3561 67.1445 27.8457C66.6706 27.3353 65.9277 27.0801 64.916 27.0801C64.0957 27.0801 63.3757 27.2988 62.7559 27.7363C62.1361 28.1738 61.653 28.748 61.3066 29.459V40H58.7773V25.207H61.1699ZM73.6113 32.4805C73.6113 30.2109 74.1491 28.388 75.2246 27.0117C76.3001 25.6263 77.7083 24.9336 79.4492 24.9336C81.181 24.9336 82.5527 25.526 83.5645 26.7109V19H86.0938V40H83.7695L83.6465 38.4141C82.6348 39.6536 81.2266 40.2734 79.4219 40.2734C77.7083 40.2734 76.3092 39.5716 75.2246 38.168C74.1491 36.7643 73.6113 34.9323 73.6113 32.6719V32.4805ZM76.1406 32.7676C76.1406 34.4447 76.487 35.7572 77.1797 36.7051C77.8724 37.653 78.8294 38.127 80.0508 38.127C81.6549 38.127 82.8262 37.4069 83.5645 35.9668V29.1719C82.8079 27.7773 81.6458 27.0801 80.0781 27.0801C78.8385 27.0801 77.8724 27.5586 77.1797 28.5156C76.487 29.4727 76.1406 30.89 76.1406 32.7676ZM89.3613 32.4668C89.3613 31.0176 89.6439 29.7142 90.209 28.5566C90.7832 27.3991 91.5762 26.5059 92.5879 25.877C93.6087 25.248 94.7708 24.9336 96.0742 24.9336C98.0885 24.9336 99.7155 25.6309 100.955 27.0254C102.204 28.4199 102.828 30.2747 102.828 32.5898V32.7676C102.828 34.2077 102.55 35.502 101.994 36.6504C101.447 37.7897 100.659 38.6784 99.6289 39.3164C98.6081 39.9544 97.4323 40.2734 96.1016 40.2734C94.0964 40.2734 92.4694 39.5762 91.2207 38.1816C89.9811 36.7871 89.3613 34.9414 89.3613 32.6445V32.4668ZM91.9043 32.7676C91.9043 34.4082 92.2826 35.7253 93.0391 36.7188C93.8047 37.7122 94.8255 38.209 96.1016 38.209C97.3867 38.209 98.4076 37.7077 99.1641 36.7051C99.9206 35.6934 100.299 34.2806 100.299 32.4668C100.299 30.8444 99.9115 29.5319 99.1367 28.5293C98.3711 27.5176 97.3503 27.0117 96.0742 27.0117C94.8255 27.0117 93.8184 27.5085 93.0527 28.502C92.2871 29.4954 91.9043 30.9173 91.9043 32.7676ZM119.098 36.5137L121.941 25.207H124.471L120.164 40H118.113L114.518 28.7891L111.018 40H108.967L104.674 25.207H107.189L110.102 36.2812L113.547 25.207H115.584L119.098 36.5137ZM129.447 25.207L129.529 27.0664C130.66 25.6445 132.136 24.9336 133.959 24.9336C137.085 24.9336 138.662 26.6973 138.689 30.2246V40H136.16V30.2109C136.151 29.1445 135.905 28.3561 135.422 27.8457C134.948 27.3353 134.205 27.0801 133.193 27.0801C132.373 27.0801 131.653 27.2988 131.033 27.7363C130.413 28.1738 129.93 28.748 129.584 29.459V40H127.055V25.207H129.447ZM151.637 40C151.491 39.7083 151.372 39.1888 151.281 38.4414C150.105 39.6628 148.702 40.2734 147.07 40.2734C145.612 40.2734 144.413 39.8633 143.475 39.043C142.545 38.2135 142.08 37.1654 142.08 35.8984C142.08 34.3581 142.663 33.1641 143.83 32.3164C145.006 31.4596 146.656 31.0312 148.779 31.0312H151.24V29.8691C151.24 28.985 150.976 28.2832 150.447 27.7637C149.919 27.235 149.139 26.9707 148.109 26.9707C147.207 26.9707 146.451 27.1986 145.84 27.6543C145.229 28.11 144.924 28.6615 144.924 29.3086H142.381C142.381 28.5703 142.641 27.8594 143.16 27.1758C143.689 26.4831 144.4 25.9362 145.293 25.5352C146.195 25.1341 147.184 24.9336 148.26 24.9336C149.964 24.9336 151.299 25.362 152.266 26.2188C153.232 27.0664 153.733 28.2376 153.77 29.7324V36.541C153.77 37.8991 153.943 38.9792 154.289 39.7812V40H151.637ZM147.439 38.0723C148.232 38.0723 148.984 37.8672 149.695 37.457C150.406 37.0469 150.921 36.5137 151.24 35.8574V32.8223H149.258C146.159 32.8223 144.609 33.7292 144.609 35.543C144.609 36.3359 144.874 36.9557 145.402 37.4023C145.931 37.849 146.61 38.0723 147.439 38.0723ZM160.113 25.207L160.182 26.8477C161.266 25.5716 162.729 24.9336 164.57 24.9336C166.639 24.9336 168.048 25.7266 168.795 27.3125C169.287 26.6016 169.925 26.0273 170.709 25.5898C171.502 25.1523 172.436 24.9336 173.512 24.9336C176.757 24.9336 178.406 26.6517 178.461 30.0879V40H175.932V30.2383C175.932 29.181 175.69 28.3926 175.207 27.873C174.724 27.3444 173.913 27.0801 172.773 27.0801C171.835 27.0801 171.055 27.3626 170.436 27.9277C169.816 28.4837 169.456 29.2357 169.355 30.1836V40H166.812V30.3066C166.812 28.1556 165.76 27.0801 163.654 27.0801C161.995 27.0801 160.861 27.7865 160.25 29.1992V40H157.721V25.207H160.113ZM188.428 40.2734C186.423 40.2734 184.791 39.6172 183.533 38.3047C182.275 36.9831 181.646 35.2194 181.646 33.0137V32.5488C181.646 31.0814 181.924 29.7734 182.48 28.625C183.046 27.4674 183.829 26.5651 184.832 25.918C185.844 25.2617 186.938 24.9336 188.113 24.9336C190.036 24.9336 191.531 25.5671 192.598 26.834C193.664 28.1009 194.197 29.9147 194.197 32.2754V33.3281H184.176C184.212 34.7865 184.636 35.9668 185.447 36.8691C186.268 37.7624 187.307 38.209 188.564 38.209C189.458 38.209 190.214 38.0267 190.834 37.6621C191.454 37.2975 191.996 36.8145 192.461 36.2129L194.006 37.416C192.766 39.321 190.907 40.2734 188.428 40.2734ZM188.113 27.0117C187.092 27.0117 186.236 27.3854 185.543 28.1328C184.85 28.8711 184.422 29.9102 184.258 31.25H191.668V31.0586C191.595 29.7734 191.249 28.7799 190.629 28.0781C190.009 27.3672 189.171 27.0117 188.113 27.0117ZM197.191 38.6738C197.191 38.2363 197.319 37.8717 197.574 37.5801C197.839 37.2884 198.23 37.1426 198.75 37.1426C199.27 37.1426 199.661 37.2884 199.926 37.5801C200.199 37.8717 200.336 38.2363 200.336 38.6738C200.336 39.0931 200.199 39.444 199.926 39.7266C199.661 40.0091 199.27 40.1504 198.75 40.1504C198.23 40.1504 197.839 40.0091 197.574 39.7266C197.319 39.444 197.191 39.0931 197.191 38.6738ZM210.658 40.2734C208.653 40.2734 207.021 39.6172 205.764 38.3047C204.506 36.9831 203.877 35.2194 203.877 33.0137V32.5488C203.877 31.0814 204.155 29.7734 204.711 28.625C205.276 27.4674 206.06 26.5651 207.062 25.918C208.074 25.2617 209.168 24.9336 210.344 24.9336C212.267 24.9336 213.762 25.5671 214.828 26.834C215.895 28.1009 216.428 29.9147 216.428 32.2754V33.3281H206.406C206.443 34.7865 206.867 35.9668 207.678 36.8691C208.498 37.7624 209.537 38.209 210.795 38.209C211.688 38.209 212.445 38.0267 213.064 37.6621C213.684 37.2975 214.227 36.8145 214.691 36.2129L216.236 37.416C214.997 39.321 213.137 40.2734 210.658 40.2734ZM210.344 27.0117C209.323 27.0117 208.466 27.3854 207.773 28.1328C207.081 28.8711 206.652 29.9102 206.488 31.25H213.898V31.0586C213.826 29.7734 213.479 28.7799 212.859 28.0781C212.24 27.3672 211.401 27.0117 210.344 27.0117ZM224.33 30.6074L227.611 25.207H230.564L225.725 32.5215L230.715 40H227.789L224.371 34.4629L220.953 40H218.014L223.004 32.5215L218.164 25.207H221.09L224.33 30.6074ZM239.123 40.2734C237.118 40.2734 235.486 39.6172 234.229 38.3047C232.971 36.9831 232.342 35.2194 232.342 33.0137V32.5488C232.342 31.0814 232.62 29.7734 233.176 28.625C233.741 27.4674 234.525 26.5651 235.527 25.918C236.539 25.2617 237.633 24.9336 238.809 24.9336C240.732 24.9336 242.227 25.5671 243.293 26.834C244.359 28.1009 244.893 29.9147 244.893 32.2754V33.3281H234.871C234.908 34.7865 235.331 35.9668 236.143 36.8691C236.963 37.7624 238.002 38.209 239.26 38.209C240.153 38.209 240.91 38.0267 241.529 37.6621C242.149 37.2975 242.691 36.8145 243.156 36.2129L244.701 37.416C243.462 39.321 241.602 40.2734 239.123 40.2734ZM238.809 27.0117C237.788 27.0117 236.931 27.3854 236.238 28.1328C235.546 28.8711 235.117 29.9102 234.953 31.25H242.363V31.0586C242.29 29.7734 241.944 28.7799 241.324 28.0781C240.704 27.3672 239.866 27.0117 238.809 27.0117Z" fill="black"/>
</svg>
