<svg width="482" height="359" viewBox="0 0 482 359" fill="none" xmlns="http://www.w3.org/2000/svg">
<rect x="2.5" y="57.5" width="477" height="244" stroke="black" stroke-width="5" stroke-linecap="round" stroke-linejoin="round"/>
<path d="M2.5 344C2.5 350.904 8.09644 356.5 15 356.5H467C473.904 356.5 479.5 350.904 479.5 344V301.5H2.5V344Z" stroke="black" stroke-width="5"/>
<path d="M2.5 15C2.5 8.09644 8.09644 2.5 15 2.5H467C473.904 2.5 479.5 8.09644 479.5 15V57.5H2.5V15Z" stroke="black" stroke-width="5"/>
<rect x="419.98" y="13" width="34.9957" height="34.9957" rx="7" stroke="black" stroke-width="4" stroke-linejoin="round"/>
<path d="M428.729 21.749L446.226 39.2469M446.227 21.749L428.729 39.2469" stroke="black" stroke-width="3" stroke-linecap="round"/>
<rect x="370.98" y="13" width="34.9957" height="34.9957" rx="7" stroke="black" stroke-width="4" stroke-linejoin="round"/>
<path d="M380.729 24.2486L397.102 24.2486M383.729 39.2469H393.227C395.436 39.2469 397.227 37.456 397.227 35.2469V25.749C397.227 23.5399 395.436 21.749 393.227 21.749H383.729C381.52 21.749 379.729 23.5399 379.729 25.749V35.2469C379.729 37.456 381.52 39.2469 383.729 39.2469Z" stroke="black" stroke-width="2" stroke-linecap="round" stroke-linejoin="round"/>
<rect x="322" y="13" width="34.9957" height="34.9957" rx="7" stroke="black" stroke-width="4" stroke-linejoin="round"/>
<line x1="331.374" y1="38.6216" x2="346.747" y2="38.6216" stroke="black" stroke-width="3" stroke-linecap="round" stroke-linejoin="round"/>
</svg>
